<svg xmlns="http://www.w3.org/2000/svg" xmlns:xlink="http://www.w3.org/1999/xlink" width="200" zoomAndPan="magnify" viewBox="0 0 4138.5 680.249983" preserveAspectRatio="xMidYMid meet" version="1.0"><defs><g/><clipPath id="619bdedc46"><path d="M 563.609375 14 L 1148 14 L 1148 679 L 563.609375 679 Z M 563.609375 14 " clip-rule="nonzero"/></clipPath><clipPath id="edca536b32"><path d="M 1125 14 L 1709.84375 14 L 1709.84375 679 L 1125 679 Z M 1125 14 " clip-rule="nonzero"/></clipPath></defs><g clip-path="url(#619bdedc46)"><path fill="#302f32" d="M 1147.410156 496.054688 L 1147.410156 196.355469 C 1147.410156 184.734375 1141.203125 174.070312 1131.175781 168.339844 L 871.742188 18.414062 C 861.714844 12.683594 849.300781 12.683594 839.433594 18.414062 L 579.84375 168.339844 C 569.816406 174.070312 563.609375 184.734375 563.609375 196.355469 L 563.609375 496.054688 C 563.609375 507.671875 569.816406 518.335938 579.84375 524.066406 L 839.433594 673.835938 C 849.460938 679.566406 861.714844 679.566406 871.742188 673.835938 L 1131.335938 524.066406 C 1141.203125 518.175781 1147.410156 507.511719 1147.410156 496.054688 " fill-opacity="1" fill-rule="evenodd"/></g><path fill="#ffffff" d="M 1418.9375 496.054688 L 1418.9375 196.355469 C 1418.9375 184.734375 1412.730469 174.070312 1402.703125 168.339844 L 1143.269531 18.414062 C 1133.242188 12.683594 1120.828125 12.683594 1110.960938 18.414062 L 851.371094 168.339844 C 841.34375 174.070312 835.136719 184.734375 835.136719 196.355469 L 835.136719 496.054688 C 835.136719 507.671875 841.34375 518.335938 851.371094 524.066406 L 1110.960938 673.835938 C 1120.988281 679.566406 1133.242188 679.566406 1143.269531 673.835938 L 1402.863281 524.066406 C 1412.730469 518.175781 1418.9375 507.511719 1418.9375 496.054688 " fill-opacity="1" fill-rule="evenodd"/><g clip-path="url(#edca536b32)"><path fill="#302f32" d="M 1709.5625 496.054688 L 1709.5625 196.355469 C 1709.5625 184.734375 1703.355469 174.070312 1693.328125 168.339844 L 1433.898438 18.414062 C 1423.871094 12.683594 1411.457031 12.683594 1401.589844 18.414062 L 1141.996094 168.339844 C 1131.972656 174.070312 1125.761719 184.734375 1125.761719 196.355469 L 1125.761719 496.054688 C 1125.761719 507.671875 1131.96875 518.335938 1141.996094 524.066406 L 1401.589844 673.835938 C 1411.617188 679.566406 1423.871094 679.566406 1433.898438 673.835938 L 1693.488281 524.066406 C 1703.355469 518.175781 1709.5625 507.511719 1709.5625 496.054688 " fill-opacity="1" fill-rule="evenodd"/></g><g fill="#302f32" fill-opacity="1"><g transform="translate(1884.089756, 403.179724)"><g><path d="M 36.96875 0 L 36.96875 -308.109375 L 106.953125 -308.109375 L 106.953125 -189.703125 L 133.375 -189.703125 C 150.6875 -189.703125 163.375 -192.488281 171.4375 -198.0625 C 179.507812 -203.644531 186.1875 -213.625 191.46875 -228 L 220.515625 -308.109375 L 296.21875 -308.109375 L 253.53125 -198.515625 C 249.71875 -188.535156 245.390625 -179.582031 240.546875 -171.65625 C 235.703125 -163.738281 230.203125 -156.84375 224.046875 -150.96875 L 307.234375 0 L 225.796875 0 L 159.78125 -125 C 157.132812 -124.707031 154.5625 -124.5625 152.0625 -124.5625 C 149.570312 -124.5625 146.863281 -124.5625 143.9375 -124.5625 L 106.953125 -124.5625 L 106.953125 0 Z M 36.96875 0 "/></g></g></g><g fill="#302f32" fill-opacity="1"><g transform="translate(2183.366808, 403.179724)"><g><path d="M 183.109375 6.15625 C 151.117188 6.15625 122.722656 -0.660156 97.921875 -14.296875 C 73.128906 -27.941406 53.765625 -46.796875 39.828125 -70.859375 C 25.890625 -94.921875 18.921875 -122.648438 18.921875 -154.046875 C 18.921875 -185.453125 25.890625 -213.1875 39.828125 -237.25 C 53.765625 -261.3125 73.128906 -280.160156 97.921875 -293.796875 C 122.722656 -307.441406 151.117188 -314.265625 183.109375 -314.265625 C 215.378906 -314.265625 243.835938 -307.441406 268.484375 -293.796875 C 293.140625 -280.160156 312.507812 -261.3125 326.59375 -237.25 C 340.675781 -213.1875 347.71875 -185.453125 347.71875 -154.046875 C 347.71875 -122.648438 340.675781 -94.921875 326.59375 -70.859375 C 312.507812 -46.796875 293.140625 -27.941406 268.484375 -14.296875 C 243.835938 -0.660156 215.378906 6.15625 183.109375 6.15625 Z M 90.234375 -154.046875 C 90.234375 -135.566406 94.191406 -119.28125 102.109375 -105.1875 C 110.035156 -91.101562 120.96875 -80.097656 134.90625 -72.171875 C 148.84375 -64.253906 164.910156 -60.296875 183.109375 -60.296875 C 201.585938 -60.296875 217.796875 -64.253906 231.734375 -72.171875 C 245.679688 -80.097656 256.539062 -91.101562 264.3125 -105.1875 C 272.09375 -119.28125 275.984375 -135.566406 275.984375 -154.046875 C 275.984375 -172.535156 272.09375 -188.820312 264.3125 -202.90625 C 256.539062 -217 245.679688 -228.003906 231.734375 -235.921875 C 217.796875 -243.847656 201.585938 -247.8125 183.109375 -247.8125 C 164.910156 -247.8125 148.84375 -243.847656 134.90625 -235.921875 C 120.96875 -228.003906 110.035156 -217 102.109375 -202.90625 C 94.191406 -188.820312 90.234375 -172.535156 90.234375 -154.046875 Z M 90.234375 -154.046875 "/></g></g></g><g fill="#302f32" fill-opacity="1"><g transform="translate(2529.296345, 403.179724)"><g><path d="M 36.96875 0 L 36.96875 -308.109375 L 96.390625 -308.109375 L 232.40625 -120.609375 L 232.40625 -308.109375 L 301.953125 -308.109375 L 301.953125 0 L 242.53125 0 L 106.515625 -188.828125 L 106.515625 0 Z M 36.96875 0 "/></g></g></g><g fill="#302f32" fill-opacity="1"><g transform="translate(2847.498407, 403.179724)"><g><path d="M 122.359375 0 L 3.96875 -308.109375 L 79.234375 -308.109375 L 120.15625 -198.515625 L 157.140625 -100.796875 L 234.609375 -308.109375 L 309.4375 -308.109375 L 191.03125 0 Z M 122.359375 0 "/></g></g></g><g fill="#302f32" fill-opacity="1"><g transform="translate(3140.173652, 403.179724)"><g><path d="M 183.109375 6.15625 C 151.117188 6.15625 122.722656 -0.660156 97.921875 -14.296875 C 73.128906 -27.941406 53.765625 -46.796875 39.828125 -70.859375 C 25.890625 -94.921875 18.921875 -122.648438 18.921875 -154.046875 C 18.921875 -185.453125 25.890625 -213.1875 39.828125 -237.25 C 53.765625 -261.3125 73.128906 -280.160156 97.921875 -293.796875 C 122.722656 -307.441406 151.117188 -314.265625 183.109375 -314.265625 C 215.378906 -314.265625 243.835938 -307.441406 268.484375 -293.796875 C 293.140625 -280.160156 312.507812 -261.3125 326.59375 -237.25 C 340.675781 -213.1875 347.71875 -185.453125 347.71875 -154.046875 C 347.71875 -122.648438 340.675781 -94.921875 326.59375 -70.859375 C 312.507812 -46.796875 293.140625 -27.941406 268.484375 -14.296875 C 243.835938 -0.660156 215.378906 6.15625 183.109375 6.15625 Z M 90.234375 -154.046875 C 90.234375 -135.566406 94.191406 -119.28125 102.109375 -105.1875 C 110.035156 -91.101562 120.96875 -80.097656 134.90625 -72.171875 C 148.84375 -64.253906 164.910156 -60.296875 183.109375 -60.296875 C 201.585938 -60.296875 217.796875 -64.253906 231.734375 -72.171875 C 245.679688 -80.097656 256.539062 -91.101562 264.3125 -105.1875 C 272.09375 -119.28125 275.984375 -135.566406 275.984375 -154.046875 C 275.984375 -172.535156 272.09375 -188.820312 264.3125 -202.90625 C 256.539062 -217 245.679688 -228.003906 231.734375 -235.921875 C 217.796875 -243.847656 201.585938 -247.8125 183.109375 -247.8125 C 164.910156 -247.8125 148.84375 -243.847656 134.90625 -235.921875 C 120.96875 -228.003906 110.035156 -217 102.109375 -202.90625 C 94.191406 -188.820312 90.234375 -172.535156 90.234375 -154.046875 Z M 90.234375 -154.046875 "/></g></g></g><g fill="#302f32" fill-opacity="1"><g transform="translate(3486.103133, 403.179724)"><g><path d="M 183.109375 6.15625 C 151.117188 6.15625 122.722656 -0.660156 97.921875 -14.296875 C 73.128906 -27.941406 53.765625 -46.796875 39.828125 -70.859375 C 25.890625 -94.921875 18.921875 -122.648438 18.921875 -154.046875 C 18.921875 -185.453125 25.890625 -213.1875 39.828125 -237.25 C 53.765625 -261.3125 73.128906 -280.160156 97.921875 -293.796875 C 122.722656 -307.441406 151.117188 -314.265625 183.109375 -314.265625 C 215.378906 -314.265625 243.835938 -307.441406 268.484375 -293.796875 C 293.140625 -280.160156 312.507812 -261.3125 326.59375 -237.25 C 340.675781 -213.1875 347.71875 -185.453125 347.71875 -154.046875 C 347.71875 -122.648438 340.675781 -94.921875 326.59375 -70.859375 C 312.507812 -46.796875 293.140625 -27.941406 268.484375 -14.296875 C 243.835938 -0.660156 215.378906 6.15625 183.109375 6.15625 Z M 90.234375 -154.046875 C 90.234375 -135.566406 94.191406 -119.28125 102.109375 -105.1875 C 110.035156 -91.101562 120.96875 -80.097656 134.90625 -72.171875 C 148.84375 -64.253906 164.910156 -60.296875 183.109375 -60.296875 C 201.585938 -60.296875 217.796875 -64.253906 231.734375 -72.171875 C 245.679688 -80.097656 256.539062 -91.101562 264.3125 -105.1875 C 272.09375 -119.28125 275.984375 -135.566406 275.984375 -154.046875 C 275.984375 -172.535156 272.09375 -188.820312 264.3125 -202.90625 C 256.539062 -217 245.679688 -228.003906 231.734375 -235.921875 C 217.796875 -243.847656 201.585938 -247.8125 183.109375 -247.8125 C 164.910156 -247.8125 148.84375 -243.847656 134.90625 -235.921875 C 120.96875 -228.003906 110.035156 -217 102.109375 -202.90625 C 94.191406 -188.820312 90.234375 -172.535156 90.234375 -154.046875 Z M 90.234375 -154.046875 "/></g></g></g><g fill="#302f32" fill-opacity="1"><g transform="translate(1921.677012, 571.443838)"><g><path d="M 42.734375 0 L 42.734375 -97.140625 L 5.359375 -97.140625 L 5.359375 -110.375 L 93.828125 -110.375 L 93.828125 -97.140625 L 56.609375 -97.140625 L 56.609375 0 Z M 42.734375 0 "/></g></g></g><g fill="#302f32" fill-opacity="1"><g transform="translate(2043.701478, 571.443838)"><g><path d="M 16.078125 0 L 16.078125 -110.375 L 83.09375 -110.375 L 83.09375 -97.453125 L 29.953125 -97.453125 L 29.953125 -62.609375 L 79.15625 -62.609375 L 79.15625 -49.828125 L 29.953125 -49.828125 L 29.953125 -12.9375 L 84.828125 -12.9375 L 84.828125 0 Z M 16.078125 0 "/></g></g></g><g fill="#302f32" fill-opacity="1"><g transform="translate(2161.469622, 571.443838)"><g><path d="M 64.96875 2.046875 C 56.875 2.046875 49.410156 0.628906 42.578125 -2.203125 C 35.742188 -5.046875 29.828125 -9.015625 24.828125 -14.109375 C 19.835938 -19.210938 15.972656 -25.257812 13.234375 -32.25 C 10.503906 -39.238281 9.140625 -46.882812 9.140625 -55.1875 C 9.140625 -63.488281 10.503906 -71.132812 13.234375 -78.125 C 15.972656 -85.125 19.835938 -91.171875 24.828125 -96.265625 C 29.828125 -101.367188 35.742188 -105.335938 42.578125 -108.171875 C 49.410156 -111.015625 56.875 -112.4375 64.96875 -112.4375 C 73.695312 -112.4375 81.710938 -110.832031 89.015625 -107.625 C 96.316406 -104.414062 102.566406 -99.84375 107.765625 -93.90625 C 112.972656 -87.96875 116.789062 -80.953125 119.21875 -72.859375 L 104.390625 -72.859375 C 101.546875 -80.835938 96.628906 -87.113281 89.640625 -91.6875 C 82.648438 -96.257812 74.582031 -98.546875 65.4375 -98.546875 C 57.238281 -98.546875 49.984375 -96.707031 43.671875 -93.03125 C 37.367188 -89.351562 32.40625 -84.253906 28.78125 -77.734375 C 25.15625 -71.222656 23.34375 -63.707031 23.34375 -55.1875 C 23.34375 -46.675781 25.15625 -39.160156 28.78125 -32.640625 C 32.40625 -26.117188 37.367188 -21.019531 43.671875 -17.34375 C 49.984375 -13.664062 57.238281 -11.828125 65.4375 -11.828125 C 74.789062 -11.828125 83.09375 -14.242188 90.34375 -19.078125 C 97.601562 -23.910156 102.65625 -30.484375 105.5 -38.796875 L 120.15625 -38.796875 C 117.945312 -30.585938 114.1875 -23.4375 108.875 -17.34375 C 103.570312 -11.25 97.160156 -6.492188 89.640625 -3.078125 C 82.128906 0.335938 73.90625 2.046875 64.96875 2.046875 Z M 64.96875 2.046875 "/></g></g></g><g fill="#302f32" fill-opacity="1"><g transform="translate(2312.815113, 571.443838)"><g><path d="M 88.46875 0 L 88.46875 -49.671875 L 29.953125 -49.671875 L 29.953125 0 L 16.078125 0 L 16.078125 -110.375 L 29.953125 -110.375 L 29.953125 -62.921875 L 88.46875 -62.921875 L 88.46875 -110.375 L 102.34375 -110.375 L 102.34375 0 Z M 88.46875 0 "/></g></g></g></svg>